<svg width="10" height="20" viewBox="0 0 10 20" fill="none" xmlns="http://www.w3.org/2000/svg">
<path d="M4.14024 1.98427L4.14024 15.6324L2.88041 13.9526C2.71335 13.7299 2.46464 13.5826 2.189 13.5432C1.91336 13.5038 1.63337 13.5756 1.41062 13.7426C1.18787 13.9097 1.04061 14.1584 1.00123 14.434C0.961851 14.7097 1.03358 14.9897 1.20065 15.2124L4.35021 19.4118C4.44819 19.5403 4.57447 19.6443 4.71923 19.7159C4.86399 19.7876 5.02333 19.8248 5.18484 19.8248C5.34636 19.8248 5.50569 19.7876 5.65045 19.7159C5.79522 19.6443 5.9215 19.5403 6.01948 19.4118L9.16904 15.3594C9.31126 15.1762 9.38878 14.951 9.38951 14.719C9.38912 14.5587 9.35202 14.4006 9.28104 14.2568C9.21007 14.113 9.10711 13.9874 8.98006 13.8896C8.7612 13.7191 8.48375 13.6422 8.20835 13.6756C7.93294 13.7091 7.68196 13.8502 7.51027 14.0681L6.23994 15.7164L6.23994 1.98427C6.23994 1.70584 6.12934 1.4388 5.93245 1.24192C5.73556 1.04503 5.46853 0.934422 5.19009 0.934422C4.91165 0.934422 4.64462 1.04503 4.44773 1.24192C4.25085 1.4388 4.14024 1.70584 4.14024 1.98427Z" fill="white"/>
</svg>
