<svg width="35" height="23" viewBox="0 0 35 23" fill="none" xmlns="http://www.w3.org/2000/svg">
<path d="M34.7333 11.5C34.7333 11.7718 34.6625 12.039 34.5279 12.2753C34.3933 12.5115 34.1995 12.7086 33.9657 12.8473L18.299 22.2473C18.0572 22.3908 17.7812 22.4665 17.5 22.4666C17.2309 22.4658 16.9665 22.3957 16.7323 22.263C16.4903 22.1269 16.2888 21.929 16.1484 21.6896C16.008 21.4501 15.9338 21.1776 15.9333 20.9V14.273L2.63233 22.2473C2.39051 22.3908 2.11452 22.4665 1.83333 22.4666C1.56419 22.4658 1.29981 22.3957 1.06566 22.263C0.823666 22.1269 0.622158 21.929 0.481767 21.6896C0.341375 21.4501 0.267141 21.1776 0.266663 20.9V2.09996C0.266711 1.82344 0.339948 1.55185 0.478934 1.3128C0.61792 1.07374 0.817703 0.875731 1.05799 0.73888C1.29827 0.602029 1.5705 0.531214 1.84701 0.533629C2.12352 0.536044 2.39447 0.611603 2.63233 0.75263L15.9333 8.72696V2.09996C15.9334 1.82344 16.0066 1.55185 16.1456 1.3128C16.2846 1.07374 16.4844 0.875731 16.7247 0.73888C16.9649 0.602029 17.2372 0.531214 17.5137 0.533629C17.7902 0.536044 18.0611 0.611603 18.299 0.75263L33.9657 10.1526C34.1995 10.2913 34.3933 10.4884 34.5279 10.7247C34.6625 10.9609 34.7333 11.2281 34.7333 11.5Z" fill="#C4A0FF"/>
</svg>
