<svg width="23" height="21" viewBox="0 0 23 21" fill="none" xmlns="http://www.w3.org/2000/svg">
<circle cx="11.5891" cy="10.3444" r="10.3444" fill="#1EEA94"/>
<path d="M11.6982 6.84669C11.9858 6.84669 12.2682 6.88062 12.5414 6.94491C12.5436 6.94538 12.5458 6.946 12.5479 6.94631C13.1989 7.10073 13.7963 7.43181 14.2813 7.91669C14.4941 8.12932 14.8392 8.12948 15.0517 7.91669C15.2645 7.7039 15.2645 7.35896 15.0517 7.14618C14.5225 6.61694 13.8897 6.22966 13.1998 6.00006V4.54481C13.1998 4.24392 12.9559 4 12.655 4C12.3541 4 12.1102 4.24392 12.1102 4.54481V5.7756C11.9739 5.76393 11.8366 5.75692 11.6982 5.75692C11.5597 5.75692 11.4224 5.76393 11.286 5.7756V4.54481C11.286 4.24392 11.0421 4 10.7412 4C10.4403 4 10.1964 4.24392 10.1964 4.54481V6.00006C9.50651 6.22966 8.87376 6.61709 8.34467 7.14618C7.4487 8.04199 6.95526 9.2331 6.95526 10.5C6.95526 11.7669 7.4487 12.9579 8.34452 13.8537C8.87376 14.3829 9.50636 14.7702 10.1962 14.9998V16.455C10.1962 16.7559 10.4402 16.9999 10.741 16.9999C11.0419 16.9999 11.2858 16.7559 11.2858 16.455V15.2243C11.4222 15.2359 11.5597 15.2429 11.698 15.2429C11.8364 15.2429 11.9739 15.2359 12.1101 15.2243V16.455C12.1101 16.7559 12.354 16.9999 12.6549 16.9999C12.9558 16.9999 13.1997 16.7559 13.1997 16.455V14.9999C13.8897 14.7704 14.5225 14.3829 15.0515 13.8537C15.2643 13.641 15.2643 13.296 15.0515 13.0833C14.8388 12.8705 14.494 12.8705 14.2812 13.0833C13.796 13.5684 13.1983 13.8994 12.5472 14.0539C12.5454 14.0542 12.5437 14.0546 12.542 14.0549C12.2685 14.1194 11.9858 14.1533 11.6979 14.1533C11.4115 14.1533 11.1305 14.1197 10.8584 14.056C10.8539 14.0551 10.8495 14.0539 10.845 14.0531C10.1953 13.8984 9.59882 13.5676 9.11456 13.0833C8.42484 12.3931 8.04487 11.4758 8.04487 10.5C8.04487 9.52402 8.42484 8.60673 9.11487 7.91685C9.80491 7.22681 10.7224 6.84669 11.6982 6.84669Z" fill="black"/>
</svg>
