<?xml version="1.0" encoding="UTF-8"?>
<!DOCTYPE svg PUBLIC "-//W3C//DTD SVG 1.1//EN" "http://www.w3.org/Graphics/SVG/1.1/DTD/svg11.dtd">
<svg xmlns="http://www.w3.org/2000/svg" version="1.1" width="400px" height="400px" style="shape-rendering:geometricPrecision; text-rendering:geometricPrecision; image-rendering:optimizeQuality; fill-rule:evenodd; clip-rule:evenodd" xmlns:xlink="http://www.w3.org/1999/xlink">
<g><path style="opacity:0.998" fill="#8247e5" d="M 189.5,10.5 C 274.793,10.3962 335.959,48.3962 373,124.5C 396.834,184.98 392.501,243.313 360,299.5C 312.554,368.453 247.054,396.953 163.5,385C 99.4597,370.608 53.6263,333.775 26,274.5C 2.16564,214.02 6.49897,155.687 39,99.5C 74.8023,45.8382 124.969,16.1716 189.5,10.5 Z"/></g>
<g><path style="opacity:1" fill="#fdfcfe" d="M 188.5,172.5 C 187.833,165.167 187.167,157.833 186.5,150.5C 185.758,147.191 184.091,144.357 181.5,142C 170.66,135.746 159.66,129.746 148.5,124C 143.597,123.063 138.93,123.73 134.5,126C 123.917,131.539 113.751,137.705 104,144.5C 103.333,145.833 102.667,147.167 102,148.5C 101.833,155 101.667,161.5 101.5,168C 101.385,175.574 101.885,183.074 103,190.5C 104.458,192.96 106.291,195.127 108.5,197C 118.327,202.08 127.994,207.413 137.5,213C 142.984,215.148 148.317,214.815 153.5,212C 183.671,194.414 214.004,177.08 244.5,160C 249.232,157.599 254.232,156.932 259.5,158C 278.338,168.92 297.338,179.587 316.5,190C 318.617,191.731 320.117,193.898 321,196.5C 321.667,218.5 321.667,240.5 321,262.5C 320.036,266.468 317.869,269.635 314.5,272C 296.327,282.254 277.993,292.254 259.5,302C 255.044,302.867 250.711,302.534 246.5,301C 229.167,291.333 211.833,281.667 194.5,272C 188.124,266.306 185.79,259.139 187.5,250.5C 187.833,246.5 188.167,242.5 188.5,238.5C 195.517,234.472 202.517,230.472 209.5,226.5C 210.167,233.167 210.833,239.833 211.5,246.5C 212.116,250.523 213.783,254.023 216.5,257C 226.5,262.667 236.5,268.333 246.5,274C 253.682,276.572 260.349,275.572 266.5,271C 273.337,266.747 280.337,262.747 287.5,259C 291.388,256.778 294.221,253.612 296,249.5C 296.667,236.167 296.667,222.833 296,209.5C 294.833,207.667 293.667,205.833 292.5,204C 282.035,198.266 271.702,192.266 261.5,186C 256.484,184.079 251.484,184.079 246.5,186C 216.5,203 186.5,220 156.5,237C 150.618,241.358 144.285,242.358 137.5,240C 120.422,229.932 103.088,220.266 85.5,211C 81.9421,209.108 79.4421,206.275 78,202.5C 77.0209,179.079 77.3543,155.745 79,132.5C 80.5,130.333 82.3333,128.5 84.5,127C 102.705,116.731 121.038,106.731 139.5,97C 142.833,96.3333 146.167,96.3333 149.5,97C 169.407,107.535 188.907,118.701 208,130.5C 208.667,131.833 209.333,133.167 210,134.5C 210.832,143.186 210.665,151.853 209.5,160.5C 202.483,164.528 195.483,168.528 188.5,172.5 Z"/></g>
<g><path style="opacity:1" fill="#cab0f3" d="M 186.5,150.5 C 187.167,157.833 187.833,165.167 188.5,172.5C 188.44,173.043 188.107,173.376 187.5,173.5C 186.503,165.862 186.169,158.196 186.5,150.5 Z"/></g>
<g><path style="opacity:1" fill="#cab0f4" d="M 209.5,226.5 C 209.56,225.957 209.893,225.624 210.5,225.5C 211.497,232.468 211.83,239.468 211.5,246.5C 210.833,239.833 210.167,233.167 209.5,226.5 Z"/></g>
</svg>
