<svg width="18" height="16" viewBox="0 0 18 16" fill="none" xmlns="http://www.w3.org/2000/svg">
<path fill-rule="evenodd" clip-rule="evenodd" d="M0.98316 4.70691H6.9917C5.07498 4.58101 2.12455 3.63633 0.998713 0.5H7.84927L7.84946 0.550646V0.5H10.4452V4.70886H0.98316V4.70691ZM4.20917 12.1668C3.38506 10.9334 2.9452 9.48336 2.9452 8H7.15435C7.16333 9.80123 8.62627 11.2586 10.4296 11.2586C12.2385 11.2586 13.7049 9.79223 13.7049 7.98332C13.7049 6.17961 12.2469 4.71643 10.4452 4.70804V0.5C11.9285 0.5 13.3786 0.939867 14.6119 1.76398C15.8453 2.58809 16.8066 3.75943 17.3743 5.12987C17.9419 6.50032 18.0904 8.00832 17.801 9.46317C17.5117 10.918 16.7974 12.2544 15.7485 13.3033C14.6996 14.3522 13.3632 15.0665 11.9083 15.3559C10.4535 15.6453 8.9455 15.4967 7.57506 14.9291C6.20462 14.3614 5.03328 13.4001 4.20917 12.1668Z" fill="#F2F2F2"/>
</svg>
