<svg width="18" height="18" viewBox="0 0 18 18" fill="none" xmlns="http://www.w3.org/2000/svg">
<circle cx="9" cy="9" r="9" fill="white"/>
<g clip-path="url(#clip0_334_11688)">
<mask id="mask0_334_11688" style="mask-type:luminance" maskUnits="userSpaceOnUse" x="2" y="1" width="13" height="15">
<path d="M14.0752 1.5918H2.01105V15.4838H14.0752V1.5918Z" fill="white"/>
</mask>
<g mask="url(#mask0_334_11688)">
<path d="M6.74208 4.75328C6.59155 4.73176 6.58439 4.7246 6.65605 4.71743C6.79225 4.69592 7.10764 4.7246 7.32986 4.77477C7.84598 4.89665 8.3119 5.21204 8.80651 5.764L8.93555 5.91451L9.12193 5.88585C9.9176 5.75681 10.7348 5.85717 11.4158 6.17257C11.6021 6.2586 11.896 6.43063 11.9319 6.47363C11.9462 6.48798 11.9677 6.58116 11.982 6.67436C12.0322 7.01127 12.0107 7.26214 11.9032 7.45568C11.8458 7.5632 11.8458 7.59188 11.8817 7.68506C11.9104 7.75674 11.9964 7.80694 12.0752 7.80694C12.2473 7.80694 12.4265 7.53452 12.5125 7.15461L12.5483 7.00408L12.6128 7.07576C12.9784 7.48435 13.2652 8.05064 13.3082 8.45207L13.3225 8.5596L13.258 8.4664C13.1505 8.30154 13.0501 8.19401 12.9139 8.10081C12.6702 7.93595 12.4121 7.88578 11.7312 7.84994C11.1147 7.8141 10.7634 7.7639 10.4194 7.64921C9.83158 7.45568 9.53052 7.20481 8.83519 6.28009C8.52696 5.8715 8.33342 5.64928 8.13988 5.46293C7.71696 5.05434 7.29402 4.83929 6.74208 4.75328Z" fill="#FF007A"/>
<path d="M12.0823 5.66375C12.0967 5.39137 12.1325 5.21215 12.2114 5.0473C12.24 4.98277 12.2687 4.92542 12.2759 4.92542C12.283 4.92542 12.2687 4.97561 12.2472 5.03294C12.1899 5.19064 12.1827 5.41286 12.2185 5.66375C12.2687 5.98631 12.2902 6.02934 12.6343 6.38057C12.792 6.54543 12.9784 6.75332 13.05 6.83933L13.1719 6.99703L13.05 6.88234C12.8995 6.73897 12.5554 6.46658 12.4766 6.43074C12.4264 6.40206 12.4192 6.40206 12.3834 6.4379C12.3547 6.46658 12.3476 6.50959 12.3476 6.71748C12.3404 7.04004 12.2974 7.24076 12.1899 7.44863C12.1325 7.55616 12.1253 7.53464 12.1755 7.41279C12.2114 7.31961 12.2185 7.27661 12.2185 6.96835C12.2185 6.34473 12.1469 6.1942 11.7096 5.9433C11.6021 5.87881 11.4157 5.78561 11.3082 5.73544C11.1935 5.68524 11.1075 5.64224 11.1146 5.64224C11.129 5.62791 11.5519 5.74976 11.7167 5.82145C11.9676 5.92181 12.0106 5.92898 12.0393 5.92181C12.0608 5.9003 12.0752 5.84296 12.0823 5.66375ZM7.03593 6.73181C6.73487 6.31605 6.54133 5.67092 6.58433 5.19064L6.59866 5.04011L6.67034 5.05446C6.79939 5.07595 7.02161 5.16199 7.12911 5.22648C7.41584 5.39853 7.54489 5.63507 7.66674 6.22288C7.70258 6.3949 7.75275 6.59563 7.77427 6.66012C7.81011 6.76765 7.94629 7.01855 8.06098 7.17624C8.13983 7.29093 8.08966 7.34826 7.91045 7.33394C7.63806 7.30526 7.27248 7.05439 7.03593 6.73181ZM11.7167 9.84999C10.2975 9.27654 9.79566 8.78191 9.79566 7.94323C9.79566 7.82138 9.80285 7.72101 9.80285 7.72101C9.81002 7.72101 9.86018 7.76405 9.92471 7.81422C10.2114 8.0436 10.534 8.14396 11.43 8.27298C11.9533 8.35182 12.2544 8.40918 12.5268 8.50236C13.3941 8.7891 13.9317 9.37687 14.0607 10.1725C14.0966 10.4019 14.0751 10.8392 14.0177 11.0686C13.9676 11.2478 13.8242 11.5775 13.7884 11.5847C13.7812 11.5847 13.7669 11.5489 13.7669 11.4915C13.7525 11.1904 13.602 10.9037 13.3511 10.6815C13.05 10.4234 12.6629 10.2299 11.7167 9.84999ZM10.7132 10.0865C10.6989 9.979 10.663 9.84282 10.6415 9.78547L10.6057 9.67794L10.6702 9.75679C10.7634 9.86431 10.8351 9.99336 10.8996 10.1725C10.9498 10.3087 10.9498 10.3518 10.9498 10.574C10.9498 10.789 10.9426 10.8392 10.8996 10.961C10.8279 11.1546 10.7419 11.2908 10.5985 11.4413C10.3405 11.7065 10.0036 11.8499 9.5233 11.9144C9.43726 11.9216 9.19356 11.9431 8.9785 11.9574C8.44089 11.9861 8.08247 12.0435 7.75992 12.1581C7.71691 12.1725 7.67391 12.1868 7.66672 12.1796C7.65239 12.1653 7.87461 12.0363 8.05382 11.9503C8.30469 11.8284 8.56275 11.7639 9.12904 11.6635C9.40861 11.6205 9.69532 11.5632 9.76701 11.5345C10.4767 11.3123 10.8279 10.7603 10.7132 10.0865Z" fill="#FF007A"/>
<path d="M11.3657 11.2403C11.1793 10.8317 11.1363 10.4446 11.2366 10.079C11.251 10.0432 11.2653 10.0073 11.2796 10.0073C11.294 10.0073 11.337 10.0288 11.38 10.0575C11.466 10.1149 11.6452 10.2152 12.104 10.4661C12.6846 10.7815 13.0143 11.0252 13.2437 11.3048C13.4444 11.5485 13.5663 11.828 13.6236 12.1721C13.6595 12.3657 13.638 12.8316 13.5878 13.0251C13.4301 13.6344 13.0717 14.1219 12.5484 14.4014C12.4695 14.4444 12.405 14.4731 12.3979 14.4731C12.3907 14.4731 12.4194 14.4014 12.4624 14.3154C12.6344 13.9498 12.6559 13.5986 12.5269 13.2044C12.448 12.9606 12.2832 12.6667 11.9534 12.1721C11.5592 11.5987 11.466 11.4481 11.3657 11.2403ZM6.02535 13.4337C6.5558 12.9893 7.20809 12.6739 7.81023 12.5735C8.06829 12.5305 8.49837 12.5449 8.73491 12.6094C9.11482 12.7097 9.45892 12.9248 9.63811 13.19C9.81016 13.4481 9.889 13.6703 9.96785 14.1649C9.99653 14.3584 10.0324 14.5591 10.0395 14.6022C10.0969 14.8602 10.2116 15.0609 10.3549 15.1684C10.5771 15.3333 10.9642 15.3405 11.3442 15.1971C11.4087 15.1756 11.466 15.1541 11.466 15.1613C11.4803 15.1756 11.2868 15.3046 11.1578 15.3691C10.9786 15.4623 10.8352 15.491 10.6417 15.491C10.2976 15.491 10.0037 15.3118 9.76715 14.9534C9.71695 14.8817 9.61662 14.6738 9.53058 14.4803C9.27971 13.8997 9.15067 13.7276 8.85679 13.5341C8.59873 13.3692 8.26899 13.3334 8.01809 13.4552C7.68837 13.6129 7.60233 14.0359 7.83171 14.2939C7.92492 14.4014 8.09696 14.4875 8.24031 14.509C8.50553 14.5448 8.73491 14.3369 8.73491 14.0717C8.73491 13.8997 8.67042 13.7993 8.49837 13.7204C8.26899 13.6201 8.01809 13.7348 8.02528 13.957C8.02528 14.0502 8.06828 14.1075 8.16146 14.1506C8.21882 14.1792 8.21882 14.1792 8.17581 14.172C7.96792 14.129 7.91775 13.871 8.08261 13.7061C8.28331 13.5054 8.70626 13.5914 8.8496 13.871C8.90696 13.9857 8.91412 14.215 8.86395 14.3584C8.7421 14.6738 8.398 14.8387 8.04677 14.7455C7.81023 14.681 7.70986 14.6165 7.42315 14.3226C6.92136 13.8065 6.72782 13.7061 6.011 13.5986L5.87482 13.5771L6.02535 13.4337Z" fill="#FF007A"/>
<path fill-rule="evenodd" clip-rule="evenodd" d="M2.25484 1.90015C3.92503 3.92875 6.49842 7.08275 6.62746 7.2548C6.73496 7.39817 6.69196 7.53435 6.51274 7.63472C6.41241 7.69208 6.20451 7.74941 6.10418 7.74941C5.98949 7.74941 5.85328 7.69208 5.76011 7.59887C5.69559 7.53435 5.41601 7.12579 4.78523 6.14374C4.30495 5.39108 3.89636 4.76743 3.88919 4.76027C3.86052 4.74594 3.86052 4.74594 4.73503 6.3086C5.28699 7.29065 5.4662 7.64188 5.4662 7.68489C5.4662 7.77809 5.43753 7.82825 5.32283 7.9573C5.1293 8.17233 5.04329 8.41606 4.97876 8.92499C4.90708 9.49128 4.71354 9.89271 4.16158 10.5737C3.83902 10.9751 3.78884 11.0468 3.70999 11.2117C3.60963 11.4124 3.58096 11.5271 3.56662 11.7851C3.55229 12.0575 3.58096 12.2295 3.65981 12.4876C3.73149 12.717 3.81034 12.8675 4.00388 13.1614C4.16875 13.4195 4.26911 13.613 4.26911 13.6847C4.26911 13.742 4.28344 13.742 4.5415 13.6847C5.15798 13.5413 5.66691 13.2976 5.94645 12.9965C6.1185 12.8102 6.16151 12.7098 6.16151 12.4518C6.16151 12.2869 6.15435 12.251 6.11134 12.1507C6.03966 11.993 5.90345 11.864 5.60957 11.6633C5.22247 11.398 5.05761 11.183 5.01461 10.8962C4.97876 10.6525 5.02177 10.4877 5.23682 10.0361C5.45904 9.57013 5.51637 9.37659 5.55222 8.9035C5.57373 8.60243 5.60957 8.48055 5.69559 8.38738C5.78876 8.28702 5.86761 8.25117 6.08982 8.22252C6.45541 8.17233 6.69196 8.07915 6.87833 7.89994C7.04322 7.74941 7.11487 7.59887 7.12206 7.37666L7.12923 7.2118L7.03603 7.11143C6.69912 6.72436 2.03263 1.59192 2.01112 1.59192C2.00395 1.59192 2.11865 1.72811 2.25484 1.90015ZM4.45548 12.0933C4.53433 11.9572 4.49132 11.7851 4.36229 11.6991C4.24043 11.6203 4.05406 11.6561 4.05406 11.7636C4.05406 11.7923 4.0684 11.821 4.11141 11.8353C4.17592 11.8711 4.18309 11.907 4.13291 11.9858C4.08273 12.0647 4.08273 12.1363 4.14725 12.1865C4.2476 12.2654 4.3838 12.2224 4.45548 12.0933ZM7.35861 8.32286C7.18659 8.37305 7.0217 8.55943 6.97153 8.7458C6.94285 8.86049 6.95721 9.06836 7.00737 9.13288C7.08622 9.23322 7.15791 9.2619 7.35861 9.2619C7.75287 9.2619 8.08978 9.08988 8.12562 8.88198C8.16147 8.70996 8.01093 8.47339 7.80304 8.36586C7.69552 8.30853 7.4733 8.28702 7.35861 8.32286ZM7.81737 8.68128C7.87473 8.59527 7.85321 8.50207 7.74571 8.43755C7.55215 8.3157 7.25827 8.41606 7.25827 8.60243C7.25827 8.69561 7.4088 8.79597 7.55215 8.79597C7.64535 8.79597 7.77436 8.73861 7.81737 8.68128Z" fill="#FF007A"/>
</g>
</g>
<defs>
<clipPath id="clip0_334_11688">
<rect width="12.1012" height="13.892" fill="white" transform="translate(2 1.5918)"/>
</clipPath>
</defs>
</svg>
