<svg width="24" height="24" viewBox="0 0 24 24" fill="none" xmlns="http://www.w3.org/2000/svg">
<ellipse cx="12.0018" cy="11.9977" rx="11.9977" ry="11.9977" fill="white"/>
<path d="M11.498 0H12.5057C12.5151 0.019723 12.5339 0.0112708 12.548 0.01221C13.1389 0.0377779 13.7272 0.10684 14.308 0.218834C15.4037 0.428032 16.464 0.792341 17.457 1.30078C19.3962 2.28159 21.0289 3.77599 22.1772 5.62107C23.2491 7.32535 23.8688 9.27487 23.9775 11.2853C23.9745 11.3579 23.9815 11.4306 23.9982 11.5014V12.3654C23.9982 12.3926 23.9897 12.4199 23.9888 12.4471C23.9703 12.9665 23.9182 13.4841 23.8329 13.9968C23.6357 15.2051 23.2497 16.375 22.689 17.4633C21.5527 19.7048 19.7342 21.5277 17.4955 22.6693C15.9811 23.4524 14.315 23.8981 12.6119 23.9757C11.5525 24.0305 10.4905 23.9453 9.45347 23.7221C8.15221 23.4452 6.90697 22.9508 5.77011 22.2598C4.28363 21.363 3.01215 20.1508 2.04542 18.7087C0.819994 16.8995 0.118286 14.7868 0.017775 12.604C-0.0434389 11.4908 0.0536424 10.3745 0.306102 9.28861C0.851046 6.88443 2.13123 4.70967 3.96881 3.06646C4.95579 2.17215 6.08762 1.45217 7.31595 0.937312C8.57681 0.404293 9.92001 0.0923072 11.2867 0.0150246C11.3575 0.0213734 11.4288 0.0163021 11.498 0ZM12.7518 7.06743V6.53396C12.7527 6.47733 12.7423 6.42109 12.7213 6.36849C12.7003 6.31589 12.669 6.26798 12.6294 6.22753C12.5897 6.18709 12.5424 6.15492 12.4903 6.13288C12.4381 6.11083 12.3821 6.09936 12.3254 6.09912C12.0859 6.09442 11.8455 6.09912 11.606 6.09912C11.5148 6.09662 11.4263 6.13039 11.36 6.19304C11.3104 6.23834 11.2707 6.29346 11.2436 6.3549C11.2164 6.41634 11.2023 6.48275 11.2022 6.54993C11.2022 6.89743 11.2022 7.24587 11.2022 7.59337C11.2022 7.63563 11.1919 7.6516 11.1477 7.65724C10.7447 7.71103 10.3554 7.84006 10.0001 8.03761C9.45509 8.32707 9.0449 8.81817 8.85712 9.40601C8.75776 9.73822 8.72738 10.0872 8.76789 10.4316C8.78932 10.705 8.85797 10.9725 8.97076 11.2224C9.18207 11.6713 9.53425 11.9681 9.97565 12.1776C10.3876 12.3629 10.8226 12.4921 11.2689 12.5617C11.5807 12.6181 11.8981 12.6462 12.208 12.7167C12.5043 12.7734 12.7934 12.8625 13.0702 12.9825C13.3219 13.1008 13.5397 13.2642 13.628 13.5366C13.6892 13.704 13.7149 13.8823 13.7034 14.0602C13.692 14.238 13.6436 14.4116 13.5613 14.5697C13.4701 14.7407 13.3435 14.8903 13.19 15.0087C13.0365 15.1271 12.8596 15.2114 12.671 15.2562C12.145 15.3996 11.5877 15.3779 11.0745 15.1943C10.9053 15.1399 10.7494 15.0508 10.6166 14.9328C10.4839 14.8147 10.3772 14.6703 10.3034 14.5086C10.2368 14.3634 10.1873 14.2108 10.156 14.0541C10.1435 13.971 10.1025 13.8948 10.0399 13.8387C9.97733 13.7827 9.89714 13.7502 9.81318 13.747C9.52204 13.747 9.23027 13.747 8.93788 13.747C8.85075 13.7474 8.76727 13.782 8.70531 13.8433C8.64335 13.9045 8.60782 13.9876 8.60635 14.0747C8.60761 14.1868 8.62469 14.2981 8.65707 14.4053C8.73297 14.7657 8.88604 15.1053 9.10571 15.4009C9.32539 15.6965 9.60647 15.9409 9.92963 16.1175C10.3153 16.3253 10.7341 16.4648 11.1674 16.5298C11.2538 16.5439 11.2539 16.542 11.2539 16.6322V17.7057C11.2526 17.7633 11.2629 17.8206 11.2843 17.8741C11.3056 17.9277 11.3376 17.9763 11.3781 18.0173C11.4187 18.0582 11.4671 18.0906 11.5205 18.1124C11.5738 18.1342 11.631 18.145 11.6887 18.1443C11.9206 18.1443 12.1526 18.1443 12.3846 18.1443C12.4317 18.1465 12.4788 18.1393 12.5231 18.1232C12.5675 18.107 12.6081 18.0823 12.6428 18.0503C12.6929 18.0054 12.733 17.9506 12.7607 17.8893C12.7883 17.828 12.8029 17.7616 12.8035 17.6944C12.8035 17.3366 12.8035 16.9778 12.8035 16.62C12.8035 16.557 12.8213 16.5373 12.8823 16.526C13.3248 16.4503 13.747 16.2847 14.123 16.0395C14.6596 15.7007 15.0497 15.1728 15.2161 14.5603C15.3194 14.152 15.3335 13.7263 15.2575 13.3121C15.218 13.0105 15.108 12.7224 14.9363 12.4713C14.7647 12.2201 14.5362 12.013 14.2695 11.8667C13.894 11.6652 13.4903 11.5215 13.072 11.4403C12.6504 11.3464 12.2193 11.3116 11.7948 11.2365C11.5031 11.192 11.2188 11.1083 10.9496 10.9876C10.7204 10.8768 10.525 10.7265 10.4358 10.4776C10.3269 10.184 10.3269 9.86114 10.4358 9.56756C10.557 9.2379 10.8115 9.04912 11.1365 8.94675C11.5526 8.8238 11.9927 8.80573 12.4175 8.89416C12.7383 8.94275 13.029 9.11042 13.2317 9.36375C13.3552 9.52429 13.4505 9.70469 13.5134 9.89721C13.5373 9.9689 13.5828 10.0314 13.6437 10.0762C13.7046 10.1209 13.7779 10.1457 13.8534 10.147C14.1277 10.147 14.4019 10.1517 14.6752 10.147C14.7266 10.1462 14.7771 10.1339 14.8232 10.1111C14.8693 10.0882 14.9097 10.0555 14.9415 10.0151C14.9733 9.97473 14.9958 9.92778 15.0072 9.87767C15.0186 9.82755 15.0188 9.77552 15.0077 9.72534C14.9084 9.19676 14.641 8.71439 14.2453 8.35016C13.8497 7.98594 13.3469 7.75936 12.8119 7.70419C12.7659 7.70419 12.7621 7.67978 12.7621 7.64315C12.7518 7.45156 12.7518 7.25902 12.7518 7.06743ZM21.0239 12.2659C21.0239 12.0358 21.0164 11.8057 21.0013 11.5765C20.9598 10.8979 20.8374 10.2266 20.637 9.57695C19.8731 7.12127 18.352 5.29548 16.0736 4.09957C15.6307 3.87336 15.1706 3.68243 14.6977 3.52855C14.6474 3.50725 14.5918 3.50159 14.5382 3.51231C14.4846 3.52303 14.4355 3.54963 14.3972 3.58865C14.3108 3.67018 14.259 3.78182 14.2526 3.90046C14.2526 4.14841 14.2526 4.39636 14.2526 4.64431C14.2526 4.84436 14.4479 5.11391 14.6376 5.18434C15.9685 5.67034 17.1277 6.53599 17.9716 7.67414C18.8159 8.78995 19.3268 10.1221 19.4452 11.5164C19.4923 12.0422 19.4816 12.5717 19.4132 13.0952C19.3394 13.6518 19.2043 14.1986 19.0103 14.7256C18.521 16.1046 17.63 17.3054 16.4521 18.1734C15.8813 18.5955 15.2541 18.9353 14.5888 19.183C14.494 19.2124 14.411 19.271 14.3516 19.3505C14.2922 19.4299 14.2595 19.5262 14.2582 19.6254C14.2507 19.7672 14.2526 19.9071 14.2535 20.0508C14.2544 20.1945 14.246 20.327 14.2582 20.465C14.2646 20.5535 14.3039 20.6364 14.3684 20.6972C14.4329 20.7581 14.5179 20.7925 14.6066 20.7937C14.6722 20.7829 14.7356 20.7616 14.7945 20.7308C14.9598 20.6763 15.1241 20.62 15.2856 20.5571C16.8727 19.953 18.2512 18.9031 19.2555 17.5338C20.3896 16.0103 21.009 14.1651 21.0239 12.2659ZM2.97894 12.0264C2.97894 12.3138 2.99022 12.5983 3.01464 12.8838C3.06341 13.4916 3.17706 14.0923 3.35366 14.6758C4.04237 16.9048 5.38067 18.6267 7.36855 19.8414C7.97985 20.2052 8.63086 20.4976 9.30884 20.713C9.36222 20.7356 9.42148 20.7404 9.47782 20.7267C9.53416 20.713 9.58457 20.6815 9.62159 20.6369C9.70104 20.5519 9.74738 20.4413 9.75214 20.3251C9.75214 20.0865 9.75214 19.8489 9.75214 19.6113C9.74015 19.507 9.70188 19.4075 9.64094 19.3221C9.58 19.2367 9.49836 19.1682 9.4037 19.1229C9.09588 19.0111 8.79622 18.878 8.50682 18.7247C7.31975 18.1044 6.32545 17.1705 5.63205 16.0245C5.02635 15.0407 4.65937 13.9288 4.56048 12.7777C4.5086 12.1938 4.52687 11.6057 4.61494 11.0261C4.71913 10.3565 4.91178 9.7037 5.18783 9.08481C5.75644 7.77387 6.69805 6.65913 7.89543 5.87934C8.37167 5.56656 8.88134 5.30794 9.41498 5.10827C9.51109 5.07776 9.59509 5.01764 9.65497 4.9365C9.71485 4.85536 9.74756 4.75736 9.74838 4.65652C9.74838 4.55415 9.74838 4.45271 9.74838 4.35034C9.74838 4.17659 9.75777 4.0019 9.74274 3.82909C9.74029 3.78208 9.72835 3.73604 9.70766 3.69375C9.68697 3.65146 9.65796 3.6138 9.62234 3.58301C9.58673 3.55222 9.54526 3.52894 9.50043 3.51458C9.4556 3.50022 9.40831 3.49507 9.36144 3.49943C9.30594 3.51458 9.25213 3.53534 9.20085 3.56142C8.63015 3.74442 8.07924 3.98417 7.55638 4.27708C6.42308 4.90666 5.44324 5.7794 4.68726 6.83263C3.59057 8.34357 2.99331 10.1594 2.97894 12.0264Z" fill="#2775C9"/>
</svg>
